<svg xmlns="http://www.w3.org/2000/svg" xmlns:xlink="http://www.w3.org/1999/xlink" version="1.1" x="0px" y="0px" viewBox="0 0 91 113.75" style="enable-background:new 0 0 91 91;" xml:space="preserve"><g><path d="M89.6,26.1l-19.5-11c-1.3-0.7-2.9-0.7-4.2,0l-5.6,3.2v-1.8c0-1-0.8-1.8-1.8-1.8h-5.1c-1,0-1.8,0.8-1.8,1.8v6.8l-4.3,2.5   c-0.1,0.1-0.2,0.1-0.2,0.2c-1.3-0.5-2.7-0.6-4-0.2L24.3,15.1c-1.3-0.7-2.9-0.7-4.2,0l-5.6,3.2v-1.8c0-1-0.8-1.8-1.8-1.8h-5   c-1,0-1.8,0.8-1.8,1.8v6.8l-4.3,2.5c-0.9,0.5-1.2,1.6-0.7,2.5s1.6,1.2,2.5,0.7L22,18.3c0.2-0.1,0.4-0.1,0.5,0l16.8,9.5L30,33.3   v-5.8c0-1-0.8-1.8-1.8-1.8h-8.9c-1,0-1.8,0.8-1.8,1.8v13.2l-8.2,4.9c-1.4,0.8-2.3,2.1-2.7,3.6c-0.4,1.5-0.2,3.1,0.6,4.5   s2.1,2.3,3.6,2.7s3.1,0.2,4.5-0.6l2.2-1.3v23h-4.9c-1,0-1.8,0.8-1.8,1.8s0.8,1.8,1.8,1.8h6.8h18h15h18h8.3c1,0,1.8-0.8,1.8-1.8   s-0.8-1.8-1.8-1.8h-6.5V54.2l3.8,2.2c0.9,0.5,1.9,0.8,3,0.8c2.1,0,4-1.1,5.1-2.9c0.8-1.4,1-2.9,0.6-4.5c-0.4-1.5-1.4-2.8-2.7-3.6   L50.7,28l17-9.8c0.2-0.1,0.4-0.1,0.5,0l19.5,11c0.3,0.2,0.6,0.2,0.9,0.2c0.6,0,1.3-0.3,1.6-0.9C90.8,27.7,90.4,26.6,89.6,26.1z    M9.5,18.3h1.4v2.1l-1.4,0.8V18.3z M55.3,18.3h1.4v2.1l-1.4,0.8V18.3z M21.1,29.4h5.2v6.1l-5.2,3.1C21.1,38.6,21.1,29.4,21.1,29.4z    M39.1,77.5V58.6h11.4v18.8H39.1V77.5z M68.5,52.4v25H54.1V56.8c0-1-0.8-1.8-1.8-1.8h-15c-1,0-1.8,0.8-1.8,1.8v20.6H21.1v-25   c0-0.1,0-0.1,0-0.2l23.7-14.1L68.5,52C68.5,52.2,68.5,52.3,68.5,52.4z M81.1,50.8c0.1,0.6,0.1,1.2-0.2,1.7c-0.6,1-2,1.4-3,0.8   L45.7,34.4c-0.3-0.2-0.6-0.3-0.9-0.3c-0.3,0-0.6,0.1-0.9,0.3L13.3,52.6c-0.5,0.3-1.1,0.4-1.7,0.2c-0.6-0.1-1.1-0.5-1.4-1   c-0.3-0.5-0.4-1.1-0.2-1.7c0.1-0.6,0.5-1.1,1-1.4l32.6-19.3c0.7-0.4,1.6-0.4,2.2,0l34.1,20C80.5,49.8,80.9,50.3,81.1,50.8z"/></g><text x="0" y="106" fill="#000000" font-size="5px" font-weight="bold" font-family="'Helvetica Neue', Helvetica, Arial-Unicode, Arial, Sans-serif"></text><text x="0" y="111" fill="#000000" font-size="5px" font-weight="bold" font-family="'Helvetica Neue', Helvetica, Arial-Unicode, Arial, Sans-serif"></text></svg>