<svg xmlns="http://www.w3.org/2000/svg" xmlns:xlink="http://www.w3.org/1999/xlink" version="1.1" x="0px" y="0px" viewBox="0 0 100 125" style="enable-background:new 0 0 100 100;" xml:space="preserve"><g><path d="M78.71,38.69c6.23,0,11.3-5.07,11.3-11.3s-5.07-11.3-11.3-11.3s-11.3,5.07-11.3,11.3S72.48,38.69,78.71,38.69z    M78.71,19.09c4.58,0,8.3,3.72,8.3,8.3c0,4.58-3.72,8.3-8.3,8.3s-8.3-3.72-8.3-8.3C70.41,22.81,74.13,19.09,78.71,19.09z"/><path d="M78.71,42.87c-4.11,0-8.12,1.42-11.31,4c-0.64,0.52-0.74,1.47-0.22,2.11c0.52,0.64,1.47,0.75,2.11,0.22   c2.69-2.18,5.95-3.33,9.42-3.33c8.27,0,15,6.73,15,15V77.3c0,0.83,0.67,1.5,1.5,1.5s1.5-0.67,1.5-1.5V60.86   C96.71,50.94,88.63,42.87,78.71,42.87z"/><path d="M21.29,38.69c6.23,0,11.3-5.07,11.3-11.3s-5.07-11.3-11.3-11.3s-11.3,5.07-11.3,11.3S15.06,38.69,21.29,38.69z    M21.29,19.09c4.58,0,8.3,3.72,8.3,8.3c0,4.58-3.72,8.3-8.3,8.3s-8.3-3.72-8.3-8.3C12.99,22.81,16.71,19.09,21.29,19.09z"/><path d="M32.82,48.97c0.52-0.64,0.42-1.59-0.22-2.11c-3.19-2.58-7.2-4-11.31-4c-9.92,0-18,8.07-18,18V77.3c0,0.83,0.67,1.5,1.5,1.5   s1.5-0.67,1.5-1.5V60.86c0-8.27,6.73-15,15-15c3.47,0,6.73,1.15,9.42,3.33C31.36,49.72,32.3,49.62,32.82,48.97z"/><path d="M50,43.8c6.23,0,11.3-5.07,11.3-11.3S56.23,21.2,50,21.2s-11.3,5.07-11.3,11.3S43.77,43.8,50,43.8z M50,24.2   c4.58,0,8.3,3.72,8.3,8.3s-3.72,8.3-8.3,8.3s-8.3-3.72-8.3-8.3S45.42,24.2,50,24.2z"/><path d="M50,47.98c-9.92,0-18,8.07-18,18v16.44c0,0.83,0.67,1.5,1.5,1.5s1.5-0.67,1.5-1.5V65.98c0-8.27,6.73-15,15-15   s15,6.73,15,15v16.44c0,0.83,0.67,1.5,1.5,1.5s1.5-0.67,1.5-1.5V65.98C68,56.05,59.92,47.98,50,47.98z"/></g><text x="0" y="115" fill="#000000" font-size="5px" font-weight="bold" font-family="'Helvetica Neue', Helvetica, Arial-Unicode, Arial, Sans-serif"></text><text x="0" y="120" fill="#000000" font-size="5px" font-weight="bold" font-family="'Helvetica Neue', Helvetica, Arial-Unicode, Arial, Sans-serif"></text></svg>