<svg xmlns="http://www.w3.org/2000/svg" data-name="Layer 1" viewBox="0 0 64 80" x="0px" y="0px"><title>education</title><path d="M18,29a10.915,10.915,0,0,0,4.649-1.045l.94861,1.62616a15,15,0,1,0,16.80469,0L41.351,27.955a11.02275,11.02275,0,1,0-1.7276-1.00885l-.95508,1.63733a14.83216,14.83216,0,0,0-13.33655,0l-.95508-1.63733A10.982,10.982,0,1,0,18,29ZM37,18a9.06777,9.06777,0,1,1,3.63611,7.21A9.01015,9.01015,0,0,1,37,18ZM24.61053,31.31757A12.99137,12.99137,0,1,1,19,42,12.99514,12.99514,0,0,1,24.61053,31.31757ZM18,9a9,9,0,1,1-9,9A9.01015,9.01015,0,0,1,18,9Z"/><path d="M41,48a9.00971,9.00971,0,0,0-5.623-8.33667A4.97154,4.97154,0,0,0,37,36a4.8922,4.8922,0,0,0-.05054-.49976,4.97244,4.97244,0,0,0-9.89893,0A4.8922,4.8922,0,0,0,27,36a4.97134,4.97134,0,0,0,1.623,3.66333A9.00977,9.00977,0,0,0,23,48v1H41ZM29.14612,35.12262a2.97985,2.97985,0,0,1,5.70776,0A2.95991,2.95991,0,0,1,35,36a3,3,0,0,1-6,0A2.95991,2.95991,0,0,1,29.14612,35.12262ZM25.07129,47a7.00169,7.00169,0,0,1,13.85742,0Z"/><path d="M44.24146,23H51V22a4.9838,4.9838,0,0,0-2.52-4.31531,3,3,0,1,0-4.96,0A4.9838,4.9838,0,0,0,41,22v1h3.24146ZM46,15a1,1,0,1,1-1,1A1.001,1.001,0,0,1,46,15Zm0,4a3.03925,3.03925,0,0,1,2.8291,2H43.1709A3.0062,3.0062,0,0,1,46,19Z"/><path d="M22.07477,23H23V22a4.9838,4.9838,0,0,0-2.52-4.31531,3,3,0,1,0-4.96,0A4.9838,4.9838,0,0,0,13,22v1h9.07477ZM18,15a1,1,0,1,1-1,1A1.001,1.001,0,0,1,18,15Zm-2.8291,6a3.001,3.001,0,0,1,5.6582,0H15.1709Z"/><text x="0" y="79" fill="#000000" font-size="5px" font-weight="bold" font-family="'Helvetica Neue', Helvetica, Arial-Unicode, Arial, Sans-serif"></text><text x="0" y="84" fill="#000000" font-size="5px" font-weight="bold" font-family="'Helvetica Neue', Helvetica, Arial-Unicode, Arial, Sans-serif"></text></svg>