<svg xmlns:dc="http://purl.org/dc/elements/1.1/" xmlns:cc="http://creativecommons.org/ns#" xmlns:rdf="http://www.w3.org/1999/02/22-rdf-syntax-ns#" xmlns:svg="http://www.w3.org/2000/svg" xmlns="http://www.w3.org/2000/svg" xmlns:sodipodi="http://sodipodi.sourceforge.net/DTD/sodipodi-0.dtd" xmlns:inkscape="http://www.inkscape.org/namespaces/inkscape" version="1.1" x="0px" y="0px" viewBox="0 0 100 125"><g transform="translate(0,-952.36218)"><path style="color:#000000;enable-background:accumulate;" d="m 50.053877,971.36239 c 0.41963,0.009 0.81114,0.14803 1.1875,0.40625 l 38,29.99996 c 0.87429,0.7022 0.99833,1.9979 0.34375,2.8438 -0.64516,0.8338 -2.01747,0.9672 -2.84375,0.3125 l -36.75,-29.00001 -36.75,29.00001 c -0.82628,0.6547 -2.16085,0.5162 -2.8125,-0.3125 -0.6467602,-0.8225 -0.5772202,-2.1888 0.3125,-2.8438 l 16.25,-12.84371 0,-17.5625 8,0 0,11.25 13.75,-10.84375 c 0.44512,-0.29323 0.89287,-0.415 1.3125,-0.40625 z m -0.0625,8 27,21.00001 0,33 -17,0 0,-20 -20,0 0,20 -17,0 0,-33 27,-21.00001 z" fill="#000000" stroke="none" marker="none" visibility="visible" display="inline" overflow="visible"/></g><text x="0" y="115" fill="#000000" font-size="5px" font-weight="bold" font-family="'Helvetica Neue', Helvetica, Arial-Unicode, Arial, Sans-serif"></text><text x="0" y="120" fill="#000000" font-size="5px" font-weight="bold" font-family="'Helvetica Neue', Helvetica, Arial-Unicode, Arial, Sans-serif"></text></svg>