<svg xmlns="http://www.w3.org/2000/svg" xmlns:xlink="http://www.w3.org/1999/xlink" version="1.1" x="0px" y="0px" viewBox="0 0 54.691 68.36375000000001" enable-background="new 0 0 54.691 54.691" xml:space="preserve"><g><path d="M-4318.56-68.404c-43.25,0-78.438,35.186-78.438,78.435c0,43.252,35.188,78.438,78.438,78.438s78.436-35.188,78.436-78.438   C-4240.124-33.218-4275.31-68.404-4318.56-68.404z M-4318.867-35.187c13.682,0,24.771,11.092,24.771,24.771   c0,13.683-11.092,24.771-24.771,24.771c-13.683,0-24.771-11.092-24.771-24.771C-4343.639-24.095-4332.55-35.187-4318.867-35.187z    M-4274.686,65.074c-12.042,9.627-27.292,15.396-43.874,15.396c-16.562,0-31.797-5.75-43.834-15.354   c1.116-19.851,14.187-39.903,30.178-39.903h27.332c16.024,0,29.128,19.324,30.197,39.206c0.001,0.002,0.001,0.004,0.001,0.006   S-4274.686,64.786-4274.686,65.074z"/></g><g><g><path d="M21.913,26.428c-0.047-0.144-0.176-0.244-0.326-0.254l-2.378-0.162l-0.889-2.211c-0.056-0.141-0.191-0.231-0.342-0.231    s-0.286,0.091-0.342,0.231l-0.889,2.211l-2.379,0.162c-0.149,0.01-0.278,0.11-0.325,0.254c-0.047,0.143-0.001,0.3,0.114,0.396    l1.829,1.529l-0.581,2.311c-0.037,0.146,0.019,0.301,0.141,0.389c0.121,0.088,0.285,0.094,0.413,0.014l2.019-1.268l2.019,1.268    c0.061,0.039,0.129,0.057,0.196,0.057c0.076,0,0.152-0.023,0.217-0.07c0.122-0.088,0.178-0.242,0.141-0.389l-0.581-2.311    l1.829-1.529C21.914,26.728,21.959,26.571,21.913,26.428z M19.383,28.162l0.567,2.258l-1.972-1.238l-1.972,1.238l0.567-2.258    l-1.786-1.494l2.323-0.156l0.867-2.161l0.868,2.161l2.323,0.156L19.383,28.162z"/></g><g><path d="M31.276,26.428c-0.047-0.144-0.176-0.244-0.326-0.254l-2.378-0.162l-0.889-2.211c-0.056-0.141-0.191-0.231-0.342-0.231    c-0.151,0-0.286,0.091-0.343,0.231l-0.888,2.211l-2.379,0.162c-0.149,0.01-0.279,0.11-0.325,0.254    c-0.047,0.143-0.002,0.3,0.114,0.396l1.829,1.529l-0.581,2.311c-0.037,0.146,0.019,0.301,0.141,0.389    c0.121,0.088,0.285,0.094,0.413,0.014l2.019-1.268l2.019,1.268c0.06,0.039,0.128,0.057,0.196,0.057    c0.076,0,0.152-0.023,0.217-0.07c0.121-0.088,0.178-0.242,0.141-0.389l-0.582-2.311l1.83-1.529    C31.277,26.728,31.322,26.571,31.276,26.428z M28.746,28.162l0.567,2.258l-1.972-1.238l-1.973,1.238l0.568-2.258l-1.787-1.494    l2.323-0.156l0.868-2.161l0.868,2.161l2.323,0.156L28.746,28.162z"/></g><g><path d="M40.639,26.428c-0.047-0.144-0.176-0.244-0.326-0.254l-2.378-0.162l-0.889-2.211c-0.056-0.141-0.191-0.231-0.343-0.231    c-0.15,0-0.285,0.091-0.342,0.231l-0.889,2.211l-2.378,0.162c-0.15,0.01-0.279,0.11-0.325,0.254    c-0.047,0.143-0.002,0.3,0.114,0.396l1.828,1.529l-0.581,2.311c-0.037,0.146,0.019,0.301,0.141,0.389s0.286,0.094,0.413,0.014    l2.019-1.268l2.02,1.268c0.061,0.039,0.128,0.057,0.196,0.057c0.076,0,0.152-0.023,0.217-0.07    c0.122-0.088,0.177-0.242,0.141-0.389l-0.582-2.311l1.83-1.529C40.64,26.728,40.686,26.571,40.639,26.428z M38.108,28.162    l0.568,2.258l-1.973-1.238l-1.972,1.238l0.568-2.258l-1.787-1.494l2.323-0.156l0.867-2.161l0.868,2.161l2.323,0.156L38.108,28.162    z"/></g><g><path d="M50.003,26.428c-0.047-0.144-0.176-0.244-0.326-0.254l-2.379-0.162l-0.888-2.211c-0.056-0.141-0.192-0.231-0.343-0.231    s-0.285,0.091-0.342,0.231l-0.889,2.211l-2.378,0.162c-0.15,0.01-0.278,0.11-0.325,0.254c-0.047,0.143-0.002,0.3,0.113,0.396    l1.83,1.529l-0.582,2.311c-0.037,0.146,0.02,0.301,0.141,0.389c0.122,0.088,0.285,0.094,0.413,0.014l2.019-1.268l2.02,1.268    c0.061,0.039,0.128,0.057,0.195,0.057c0.077,0,0.152-0.023,0.217-0.07c0.123-0.088,0.178-0.242,0.142-0.389l-0.582-2.311    l1.829-1.529C50.004,26.728,50.049,26.571,50.003,26.428z M47.471,28.162l0.568,2.258l-1.973-1.238l-1.972,1.238l0.568-2.258    l-1.787-1.494l2.323-0.156l0.867-2.161l0.868,2.161l2.323,0.156L47.471,28.162z"/></g><g><path d="M12.558,26.426c-0.047-0.143-0.176-0.244-0.326-0.254l-2.378-0.161l-0.888-2.212c-0.057-0.14-0.192-0.231-0.343-0.231    s-0.286,0.092-0.342,0.231l-0.889,2.212l-2.378,0.161c-0.15,0.01-0.279,0.111-0.326,0.254c-0.047,0.144-0.001,0.301,0.114,0.397    l1.829,1.528l-0.581,2.311c-0.037,0.146,0.019,0.301,0.141,0.391c0.122,0.088,0.285,0.094,0.413,0.014l2.019-1.268l2.019,1.268    c0.061,0.037,0.129,0.057,0.196,0.057c0.076,0,0.152-0.025,0.217-0.07c0.122-0.09,0.178-0.244,0.142-0.391l-0.582-2.311    l1.829-1.528C12.56,26.727,12.605,26.57,12.558,26.426z M10.028,28.162l0.568,2.256l-1.973-1.236l-1.972,1.236l0.568-2.256    l-1.787-1.494l2.323-0.158l0.867-2.16l0.868,2.16l2.323,0.158L10.028,28.162z"/></g></g><text x="0" y="69.691" fill="#000000" font-size="5px" font-weight="bold" font-family="'Helvetica Neue', Helvetica, Arial-Unicode, Arial, Sans-serif"></text><text x="0" y="74.691" fill="#000000" font-size="5px" font-weight="bold" font-family="'Helvetica Neue', Helvetica, Arial-Unicode, Arial, Sans-serif"></text></svg>